HIERARCHY
ROOT Hips
{
  OFFSET -35.4901 99.2528 17.4586
  CHANNELS 6 Xposition Yposition Zposition Zrotation Xrotation Yrotation
  JOINT LeftUpLeg
  {
    OFFSET 8.64259 1.95398 -2.38835
    CHANNELS 3 Zrotation Xrotation Yrotation
    JOINT LeftLeg
    {
      OFFSET 43.7702 0 0
      CHANNELS 3 Zrotation Xrotation Yrotation
      JOINT LeftFoot
      {
        OFFSET 40.6238 0 0
        CHANNELS 3 Zrotation Xrotation Yrotation
        JOINT LeftToeBase
        {
          OFFSET 12.7242 0 0
          CHANNELS 3 Zrotation Xrotation Yrotation
          End Site
          {
            OFFSET 0 0 0
          }
        }
      }
    }
  }
  JOINT RightUpLeg
  {
    OFFSET -8.2249 1.95398 -2.59336
    CHANNELS 3 Zrotation Xrotation Yrotation
    JOINT RightLeg
    {
      OFFSET 43.5653 0 0
      CHANNELS 3 Zrotation Xrotation Yrotation
      JOINT RightFoot
      {
        OFFSET 40.6238 0 0
        CHANNELS 3 Zrotation Xrotation Yrotation
        JOINT RightToeBase
        {
          OFFSET 12.7242 0 0
          CHANNELS 3 Zrotation Xrotation Yrotation
          End Site
          {
            OFFSET 0 0 0
          }
        }
      }
    }
  }
  JOINT Spine
  {
    OFFSET 0.165834 0.87714 6.61349
    CHANNELS 3 Zrotation Xrotation Yrotation
    JOINT Spine1
    {
      OFFSET 7.38963 1.71661e-005 0
      CHANNELS 3 Zrotation Xrotation Yrotation
      JOINT Spine2
      {
        OFFSET 11.9445 1.14441e-005 0
        CHANNELS 3 Zrotation Xrotation Yrotation
        JOINT Spine3
        {
          OFFSET 14.7254 4.19617e-005 0
          CHANNELS 3 Zrotation Xrotation Yrotation
          JOINT Spine4
          {
            OFFSET 10.9679 0 0
            CHANNELS 3 Zrotation Xrotation Yrotation
            JOINT RightShoulder
            {
              OFFSET 2.46616 -1.6653 3.69651
              CHANNELS 3 Zrotation Xrotation Yrotation
              JOINT RightArm
              {
                OFFSET 13.0012 0 0
                CHANNELS 3 Zrotation Xrotation Yrotation
                JOINT RightForeArm
                {
                  OFFSET 28.7848 1.52588e-005 0
                  CHANNELS 3 Zrotation Xrotation Yrotation
                  JOINT RightHand
                  {
                    OFFSET 26.5688 1.52588e-005 0
                    CHANNELS 3 Zrotation Xrotation Yrotation
                    End Site
                    {
                      OFFSET 0 0 0
                    }
                  }
                }
              }
            }
            JOINT LeftShoulder
            {
              OFFSET 2.38034 -1.29275 -3.7523
              CHANNELS 3 Zrotation Xrotation Yrotation
              JOINT LeftArm
              {
                OFFSET 16.3182 6.10351e-005 0
                CHANNELS 3 Zrotation Xrotation Yrotation
                JOINT LeftForeArm
                {
                  OFFSET 27.0901 0 0
                  CHANNELS 3 Zrotation Xrotation Yrotation
                  JOINT LeftHand
                  {
                    OFFSET 24.5451 1.52588e-005 0
                    CHANNELS 3 Zrotation Xrotation Yrotation
                    End Site
                    {
                      OFFSET 0 0 0
                    }
                  }
                }
              }
            }
            JOINT Neck
            {
              OFFSET 5.0226 -0.0266342 0
              CHANNELS 3 Zrotation Xrotation Yrotation
              JOINT Head
              {
                OFFSET 6.69364 2.86102e-005 0
                CHANNELS 3 Zrotation Xrotation Yrotation
                End Site
                {
                  OFFSET 0 0 0
                }
              }
            }
          }
        }
      }
    }
  }
}
MOTION
Frames:	18
Frame Time:	0.0416667
18.0971 97.8917 -54.5892 -130.214 -78.83 -132.573 -178.088 2.7923 84.3013 -27.0428 -4.39692 -3.08231 78.3201 5.88446 -2.70478 12.5439 -3.43845 5.52775 177.42 17.9797 87.0338 -48.6882 -7.73433 -3.90669 71.8226 -6.59111 -1.56511 20.0637 -0.406831 1.9609 -0.0170763 7.9034 -89.7781 11.0677 0.0689648 0.434926 -0.60329 0.0880362 0.431459 -23.138 -0.0649407 0.435543 -3.12539 -0.0649354 0.435543 90.074 -29.6879 -106.729 41.9916 -10.3229 -1.97178 2.90294 -24.6851 -16.2656 -23.6841 0.438544 -10.5337 -84.1238 -49.0308 87.4502 -19.8036 7.6679 -26.8044 2.76901 -4.08713 -7.7186 1.86146 -0.206069 -7.53871 1.91117 3.03493 -2.80719 -5.51756 3.4134 0.716618 
17.3136 97.5354 -47.2988 -148.145 -82.3843 -150.663 -178.192 -1.4954 84.4439 -26.2262 0.0212739 -1.97262 81.491 7.06001 -2.32358 12.4809 -2.97115 4.94171 174.491 19.5042 88.2957 -23.3532 -6.69944 -1.45597 63.2026 -3.27481 -1.61041 23.3709 -0.552574 2.00855 -0.641527 7.9326 -89.8365 11.0113 -1.20126 0.440376 -0.659128 -1.18071 0.492819 -23.1987 -1.27808 0.0589336 -3.18606 -1.27807 0.0589324 90.5543 -31.1747 -105.235 41.7083 -6.97689 4.0175 1.44053 -26.1205 -17.4141 -22.1905 0.152418 -9.48162 -85.1024 -45.0052 85.3906 -20.3284 6.85187 -36.2736 4.34118 -1.69936 -12.3697 2.99759 -0.305014 -8.94102 1.94206 3.08902 -5.12057 -5.35351 3.76067 3.09496 
16.6996 96.169 -39.1138 178.135 -83.546 174.297 -177.77 -7.06179 84.611 -26.1507 4.01747 -1.69614 85.6763 8.78194 -3.18714 14.1096 -4.0207 6.30821 171.724 21.0054 87.8988 -6.65725 -2.71742 0.151937 62.8538 -2.03403 -1.59822 24.1786 -1.89481 5.15195 -1.08399 7.98966 -89.7356 10.902 -2.03585 0.717931 -0.767609 -2.00228 0.806855 -23.3155 -2.15747 0.0726093 -3.30284 -2.15745 0.072614 90.9622 -32.7397 -103.91 41.8151 -3.76483 8.50753 3.07376 -23.824 -14.2309 -22.5056 0.139654 -8.96529 -86.1147 -43.2867 83.4857 -19.3206 5.6144 -44.6316 6.90885 4.17754 -15.16 2.64117 -0.334265 -9.93381 1.5266 2.92185 -6.7604 -4.83936 3.81664 4.13358 
16.1231 94.1675 -30.1182 144.033 -82.212 138.876 -176.619 -12.293 85.886 -27.3328 9.0156 -1.39922 88.6846 10.6023 -3.72137 18.0724 -4.78573 7.62793 170.612 24.0374 86.082 -6.19174 5.58858 0.703224 65.5398 -2.39933 -0.590616 25.8819 -1.01642 2.9062 -1.38414 7.99771 -89.7364 10.8893 -2.63392 0.772026 -0.779301 -2.59739 0.887266 -23.3359 -2.7441 -0.0558651 -3.32329 -2.74409 -0.0558526 91.5568 -32.8204 -102.746 42.5387 -2.02939 11.1711 5.87913 -21.611 -9.11324 -19.5776 0.183066 -9.51162 -87.0617 -43.8595 82.0472 -19.519 6.02852 -50.1743 8.10254 7.63332 -15.6352 1.44954 -0.279408 -10.0598 2.58582 2.1555 -6.61678 -5.2216 3.08133 4.38144 
15.7467 93.0845 -20.8268 123.563 -79.6242 118.126 -175.2 -14.58 88.1649 -31.0836 12.3712 -0.251256 83.5831 10.1162 -0.194002 32.7557 -1.32078 1.71514 168.042 26.0852 84.1612 -12.7884 4.83828 2.46787 56.3504 1.22593 -0.190537 22.8459 0.696088 -0.734812 -1.46563 8.03657 -89.9595 10.8085 -2.89963 0.351033 -0.859271 -2.88137 0.47841 -23.42 -2.87097 -0.537403 -3.40736 -2.87097 -0.537399 91.263 -32.3294 -103.466 42.6962 0.130115 10.9866 9.0731 -18.4527 -2.02643 -18.2145 0.156237 -9.25297 -87.9755 -44.2428 80.6582 -20.4495 9.23169 -52.8134 7.08504 11.1324 -11.7197 0.130647 -0.186822 -8.78585 6.49234 1.25781 -3.65695 -5.86264 1.83692 3.23874 
15.1739 91.761 -12.9181 116.08 -79.5053 111.139 -171.119 -7.97073 92.1343 -47.004 15.4056 -0.152394 72.0658 6.05312 2.58641 41.7976 1.48614 -4.82513 166.265 34.1272 83.8029 -32.3737 -0.0118602 4.63579 58.6156 1.30362 -1.11274 10.1699 0.261799 1.4673 -1.14775 8.31786 -90.2499 10.2366 -2.40093 -0.290938 -1.43218 -2.4114 -0.18493 -23.9827 -2.20244 -0.999392 -3.97001 -2.20243 -0.999399 90.4472 -30.4214 -105.717 41.5471 -1.54702 6.65106 10.0374 -17.1791 -0.0586638 -17.7416 0.116361 -8.87519 -88.9646 -42.074 78.5751 -18.4877 12.9025 -56.5293 2.48551 16.2834 -1.94591 -3.66999 -0.0537242 -7.61887 13.3379 0.622281 -0.828487 -5.77832 0.741741 2.26947 
14.3207 90.0574 -8.43859 109.535 -79.8882 105.587 -163.805 11.5577 98.2891 -73.9878 14.0401 -0.156978 62.2945 1.94396 1.56912 10.0058 1.56802 -0.392835 163.145 38.5456 85.6084 -44.1469 -2.96606 6.00107 65.4725 -2.79435 -3.79893 11.5156 -0.737524 3.1571 -0.752556 8.98901 -90.491 8.889 -1.71988 -0.855782 -2.78104 -1.75588 -0.779253 -25.3205 -1.38318 -1.33316 -5.30782 -1.38319 -1.33316 89.1509 -28.348 -109.125 34.515 -6.24461 -3.48433 10.6036 -20.9557 -2.94837 -20.8341 -0.33741 -5.81427 -89.4986 -39.7509 77.1183 -13.0964 13.7333 -64.3533 -1.33808 26.6253 0.249908 -10.5611 0.0787256 -6.72776 21.9135 -0.0465158 0.52838 -5.96401 -0.265963 1.23095 
14.3424 88.628 -5.44714 84.3326 -81.3612 79.4614 -155.077 31.5597 91.6436 -83.5365 9.92519 -3.34029 70.6451 5.57706 1.85766 13.8326 1.75896 -1.10256 159.494 44.5519 85.9953 -50.1878 -7.05381 7.86239 70.6396 -5.44275 -4.79148 11.0003 -1.48574 4.5152 -0.359282 9.4439 -90.5669 7.98052 -0.965132 -1.06353 -3.69053 -1.01101 -1.02003 -26.2232 -0.600928 -1.30439 -6.21053 -0.600929 -1.3044 89.8495 -24.9165 -109.163 25.9151 -4.1074 -18.043 7.18805 -25.0997 -6.26535 -28.539 -1.4045 -1.65576 -90.128 -39.1421 75.8935 -10.105 12.1717 -67.4119 0.322127 35.2245 -2.34515 -1.19824 0.0362859 -0.61821 27.3689 0.019604 3.15674 -3.85345 -1.18081 0.484871 
14.8621 86.8649 -2.94784 41.9512 -81.6498 35.9331 -146.752 45.2234 87.4565 -77.3769 5.36478 -10.332 73.9362 6.75496 0.228653 15.8828 1.33647 -0.75515 154.748 51.7213 87.9132 -55.0374 -13.0462 9.83189 74.0919 -7.1377 -5.12425 10.0899 -2.43666 6.20725 0.160697 9.70297 -90.3779 7.46837 0.157226 -0.753211 -4.20277 0.123929 -0.759405 -26.7365 0.376332 -0.671138 -6.7239 0.376321 -0.671151 91.5345 -18.2759 -108.589 26.8035 -1.51969 -31.5811 4.39414 -28.612 -7.65435 -32.4867 -2.15281 0.712452 -90.0768 -37.669 75.5655 -8.03556 11.2371 -70.3218 3.02483 38.0484 -6.80834 7.2519 0.785111 6.04628 30.4033 -0.0102911 2.973 -2.95457 -1.20853 1.09424 
15.8014 84.6327 -0.47852 16.1398 -79.7721 10.3143 -147.705 55.3178 91.5714 -66.7022 5.17782 -14.5931 71.8595 5.57018 -0.453296 15.0713 0.827288 -0.0159813 146.806 57.4264 92.5115 -61.0845 -19.2088 11.3216 74.8886 -7.56026 -4.77543 11.322 -3.70602 8.51502 0.417971 10.0685 -90.3247 6.73838 0.69631 -0.667079 -4.93258 0.666272 -0.697102 -27.4686 0.864596 -0.426974 -7.45592 0.864604 -0.426972 91.8383 -15.3219 -109.353 21.2621 -4.82503 -44.5419 8.86202 -28.6741 -2.90153 -32.188 -2.27503 1.16759 -91.1031 -37.9043 73.874 -10.8473 9.24001 -72.7207 3.0456 45.1477 -3.94076 8.38755 1.01528 7.33156 34.8755 0.313886 2.63737 -3.53064 -0.880677 0.930488 
17.5103 80.6578 2.05633 2.78739 -77.2902 -3.40394 -150.085 63.3912 97.0274 -62.7462 9.82683 -14.2587 66.6718 3.26595 0.163672 11.4991 1.27216 -0.252083 135.431 64.5959 99.8453 -70.9621 -26.4266 10.8766 76.5474 -8.59532 -5.33481 10.9614 -4.87047 10.5784 0.559629 10.623 -90.2192 5.6303 1.02675 -0.457597 -6.04031 1.00562 -0.502361 -28.5787 1.11681 -0.127826 -8.56606 1.11681 -0.127827 91.5066 -15.5373 -110.093 17.9634 -4.97992 -54.555 10.356 -30.1634 -0.79873 -30.8111 -2.93205 4.08783 -90.455 -33.6627 73.6934 -10.4461 9.38593 -77.1433 3.68613 51.864 -5.18331 7.53917 1.07785 8.95014 44.2402 0.745283 3.44122 -6.03714 -1.12125 0.220667 
20.3683 74.1911 4.68253 -9.25596 -75.5497 -15.1805 -137.506 72.2709 90.3041 -73.9906 20.1176 -10.6639 65.2027 2.63596 2.39081 17.8453 1.29961 -0.997486 116.589 72.161 115.126 -85.388 -32.1769 8.10089 78.1333 -9.58913 -6.09837 11.8494 -6.76364 14.1152 0.68564 10.7663 -90.0404 5.34145 1.35324 -0.107685 -6.32881 1.34719 -0.167169 -28.8694 1.32303 0.304072 -8.85671 1.32303 0.304056 88.0076 -20.5929 -115.466 13.1282 -7.0727 -54.1035 11.7618 -39.6686 -1.48493 -32.8193 -4.08724 7.17318 -91.1849 -35.8851 73.1031 -8.70852 9.94185 -77.1304 3.07832 56.0903 -5.92379 4.13198 0.602281 8.25301 49.5966 1.21562 2.57932 -8.42495 -0.349261 -0.342659 
23.5882 66.8245 6.48814 -15.9048 -73.9999 -21.0744 -92.8463 79.413 50.0046 -93.3135 22.1064 -4.00347 69.34 4.70768 1.27223 22.1425 0.51715 -0.19004 80.1535 77.1728 148.987 -99.9356 -35.8673 4.24591 78.4867 -10.2497 -7.29215 12.3917 -7.24389 15.0984 0.790118 11.1081 -90.0033 4.65732 1.57749 -0.0260578 -7.01267 1.57481 -0.0954971 -29.5551 1.51236 0.449357 -9.54244 1.51236 0.449347 86.2648 -22.4217 -118.2 11.3746 -7.65911 -55.0281 12.7498 -44.6084 -0.663129 -36.2958 -5.77124 11.1219 -91.9444 -36.0544 71.8313 -9.15239 9.01634 -78.1444 4.48356 57.053 -6.9575 3.25703 0.654464 10.7112 55.4645 1.2251 2.66665 -10.0361 -0.439784 -1.65577 
26.6698 60.0689 7.59646 -21.0629 -73.0215 -25.4513 -42.1109 76.6001 1.41609 -109.002 21.8884 2.30634 73.975 6.92752 3.69352 25.4922 -0.0937527 0.440673 42.184 77.1287 -174.384 -111.33 -38.6001 1.15616 79.8946 -11.1863 -8.68302 13.2353 -6.63181 14.12 0.911506 11.5166 -89.9628 3.83954 1.83612 0.0699362 -7.83012 1.83742 -0.010983 -30.3748 1.73019 0.618696 -10.3621 1.73019 0.618707 85.6305 -23.2136 -119.064 9.2471 -7.21848 -55.9271 9.07186 -44.5906 -3.33604 -30.946 -4.68039 10.2708 -92.1229 -35.2038 71.2264 -10.0961 7.83702 -79.3511 5.02645 59.1044 -6.44675 -0.923178 0.0797887 9.03459 60.5126 1.21097 2.86215 -11.7816 -0.628346 -2.40144 
29.1684 54.0001 8.47386 -27.7883 -73.2593 -31.7531 -25.4254 71.6149 -13.843 -121.108 18.0175 6.87579 79.7803 9.70318 3.06947 27.1032 0.556714 -0.74247 18.4825 76.4216 -151.247 -119.909 -40.2686 -0.702159 85.5526 -14.6724 -8.57396 10.4301 -5.65318 11.9229 1.03891 11.9803 -89.9328 2.91075 2.10175 0.153327 -8.75852 2.10646 0.0606334 -31.3058 1.95847 0.778153 -11.2932 1.95846 0.778132 85.8324 -22.8051 -118.888 10.0331 -5.36729 -56.6233 11.8974 -51.1448 -0.745074 -37.1215 -7.48043 16.1355 -92.2516 -35.3274 71.043 -9.44441 7.91028 -79.5565 4.3844 58.5995 -6.1811 0.0222492 0.208148 10.0277 63.5067 2.16807 4.27458 -13.2349 -0.759946 -3.08126 
30.6043 48.9568 9.19236 -34.8703 -74.1671 -37.3576 -14.0423 68.7706 -24.818 -129.919 13.4531 9.53836 84.5758 11.8322 2.32955 25.7597 1.54961 -2.20028 9.00639 77.3033 -140.958 -126.206 -39.3561 -1.4964 95.1154 -19.9814 -6.47938 6.0595 -3.3688 7.68025 1.1121 12.3387 -89.9886 2.19406 2.22508 0.0672551 -9.47498 2.22588 -0.030793 -32.0242 2.10195 0.733167 -12.0115 2.10195 0.733162 86.1569 -22.2534 -118.534 12.0808 -5.72153 -55.3248 9.7292 -48.9833 -3.15967 -37.3 -6.76069 13.6242 -92.4434 -35.761 70.8582 -10.0196 9.03345 -78.156 2.78765 60.366 -4.89024 2.11542 0.528121 10.8742 64.2602 3.07421 4.6246 -12.7773 -0.148045 -3.85326 
30.7365 45.122 10.0536 -40.2829 -77.4555 -40.6238 -4.98421 69.6502 -35.343 -135.501 9.41787 10.3257 89.8411 13.6328 0.224259 25.3137 0.184054 0.00307383 -0.576988 79.9537 -130.588 -131.591 -35.569 -1.71574 100.335 -21.8041 -3.49868 7.43536 -1.62828 4.82016 1.06017 12.805 -90.1851 1.2653 2.04591 -0.296637 -10.4041 2.03088 -0.386428 -32.9521 2.04044 0.332233 -12.9395 2.04044 0.33223 86.6792 -21.9555 -117.588 13.4165 -7.66434 -53.8677 5.71867 -52.9811 -7.74964 -40.0043 -8.27824 16.4555 -92.2096 -36.0441 71.3634 -11.2292 10.8532 -76.643 2.71029 57.0757 -4.97174 5.98108 0.974968 12.1748 63.9117 3.0217 3.57962 -11.6192 0.546667 -3.72459 
30.0498 42.438 11.2235 -48.6969 -81.9905 -49.0486 -0.064353 71.9953 -40.8662 -139.063 9.37484 10.7535 92.7195 15.0527 0.601078 24.6398 -0.225875 0.715918 -37.2509 83.3913 -93.324 -136.263 -32.9815 -1.16971 103.802 -23.3011 -2.5232 10.2685 -1.12257 3.89626 0.836505 13.1897 -90.0825 0.493867 1.63779 -0.0912943 -11.176 1.63219 -0.163317 -33.7192 1.58948 0.405276 -13.7065 1.58949 0.405293 86.3581 -23.4814 -117.364 16.0524 -7.72975 -51.4739 -2.70041 -55.7644 -15.4467 -42.1583 -9.35618 17.9641 -91.5236 -36.2709 72.6348 -7.10884 12.6318 -77.0522 -1.68748 49.4544 -2.53767 -9.92693 -0.15958 -3.32365 58.7583 1.06282 -0.198406 -7.81369 1.20986 -1.58652 
